<?xml version="1.0" encoding="UTF-8" standalone="no"?>
<!-- Created with Inkscape (http://www.inkscape.org/) -->

<svg
   xmlns:dc="http://purl.org/dc/elements/1.1/"
   xmlns:cc="http://creativecommons.org/ns#"
   xmlns:rdf="http://www.w3.org/1999/02/22-rdf-syntax-ns#"
   xmlns:svg="http://www.w3.org/2000/svg"
   xmlns="http://www.w3.org/2000/svg"
   xmlns:xlink="http://www.w3.org/1999/xlink"
   xmlns:sodipodi="http://sodipodi.sourceforge.net/DTD/sodipodi-0.dtd"
   xmlns:inkscape="http://www.inkscape.org/namespaces/inkscape"
   width="93.881401mm"
   height="38.160294mm"
   viewBox="0 0 332.65061 135.21364"
   id="svg2"
   version="1.1"
   inkscape:version="0.91 r13725"
   sodipodi:docname="title.svg">
  <defs
     id="defs4">
    <linearGradient
       inkscape:collect="always"
       id="linearGradient4162">
      <stop
         style="stop-color:#c7b141;stop-opacity:1"
         offset="0"
         id="stop4164" />
      <stop
         style="stop-color:#c56464;stop-opacity:0;"
         offset="1"
         id="stop4166" />
    </linearGradient>
    <linearGradient
       inkscape:collect="always"
       xlink:href="#linearGradient4162"
       id="linearGradient4168"
       x1="187.14737"
       y1="211.54131"
       x2="188.36971"
       y2="100.09203"
       gradientUnits="userSpaceOnUse"
       gradientTransform="matrix(0.98097757,0,0,0.98097757,2.104717,3.5890129)" />
  </defs>
  <sodipodi:namedview
     id="base"
     pagecolor="#ffffff"
     bordercolor="#666666"
     borderopacity="1.0"
     inkscape:pageopacity="0.0"
     inkscape:pageshadow="2"
     inkscape:zoom="2.8"
     inkscape:cx="156.85937"
     inkscape:cy="49.151594"
     inkscape:document-units="px"
     inkscape:current-layer="layer1"
     showgrid="false"
     inkscape:window-width="1920"
     inkscape:window-height="1001"
     inkscape:window-x="-9"
     inkscape:window-y="-9"
     inkscape:window-maximized="1"
     fit-margin-top="0"
     fit-margin-left="0"
     fit-margin-right="0"
     fit-margin-bottom="0" />
  <metadata
     id="metadata7">
    <rdf:RDF>
      <cc:Work
         rdf:about="">
        <dc:format>image/svg+xml</dc:format>
        <dc:type
           rdf:resource="http://purl.org/dc/dcmitype/StillImage" />
        <dc:title></dc:title>
      </cc:Work>
    </rdf:RDF>
  </metadata>
  <g
     inkscape:label="Layer 1"
     inkscape:groupmode="layer"
     id="layer1"
     transform="translate(-16.861572,-77.845992)">
    <text
       xml:space="preserve"
       style="font-style:normal;font-weight:normal;font-size:121.26435852px;line-height:125%;font-family:sans-serif;letter-spacing:0px;word-spacing:0px;fill:url(#linearGradient4168);fill-opacity:1;stroke:none;stroke-width:1px;stroke-linecap:butt;stroke-linejoin:miter;stroke-opacity:1"
       x="17.918137"
       y="172.13257"
       id="text4150"
       sodipodi:linespacing="125%"
       transform="scale(1.0190559,0.98130043)"><tspan
         sodipodi:role="line"
         id="tspan4152"
         x="17.918137"
         y="172.13257"
         style="font-style:normal;font-variant:normal;font-weight:normal;font-stretch:normal;font-family:'Alba Matter';-inkscape-font-specification:'Alba Matter';fill:url(#linearGradient4168);fill-opacity:1">snapd</tspan></text>
    <g
       style="font-style:normal;font-weight:normal;font-size:116.16291046px;line-height:125%;font-family:sans-serif;letter-spacing:0px;word-spacing:0px;fill:#000000;fill-opacity:1;stroke:none;stroke-width:1px;stroke-linecap:butt;stroke-linejoin:miter;stroke-opacity:1"
       id="text4136"
       transform="matrix(0.99141098,0,0,0.99141098,5.6499914,30.872787)">
      <path
         d="m 74.079225,99.31476 q 0,6.2728 -4.181865,10.57082 -4.065701,4.29803 -10.338499,4.76268 0,-0.11616 -0.232325,-0.46465 -0.232326,-0.34849 -0.232326,-0.46465 -0.116163,2.90407 -0.116163,7.31826 l 0,2.2071 q 0,8.71222 -1.277792,13.35873 -1.858607,6.85362 -7.550589,12.66176 -8.828381,8.82838 -21.490139,8.82838 -6.621286,0 -11.035476,-4.41419 -4.298028,-4.29803 -4.298028,-10.91931 0,-3.02024 1.045466,-5.80815 -1.045466,-2.78791 -1.045466,-5.80814 0,-6.50513 4.181865,-10.91932 4.298028,-4.41419 10.803151,-4.53035 l 0,-1.39395 q 0,-1.2778 0.116162,-2.67175 -0.116162,-1.51012 -0.116162,-2.55559 l 0,-6.38896 q 0,-12.777916 8.712218,-21.490134 8.828381,-8.828381 21.606301,-8.828381 6.621286,0 11.035477,4.41419 4.41419,4.298028 4.41419,10.919314 0,3.136399 -1.045466,5.808146 1.045466,2.671747 1.045466,5.808145 z M 66.528636,87.698469 q 0,-3.484887 -2.207095,-5.57582 -2.207096,-2.207095 -5.691983,-2.207095 -9.641521,0 -16.262807,6.621286 -6.505123,6.505123 -6.505123,16.14664 l 0,6.38896 q 0,0.81314 -0.116163,4.76268 0,0 0,2.32326 0,3.02024 -2.090933,5.11117 -1.974769,1.97477 -4.995005,1.97477 -3.484887,0 -5.691982,2.20709 -2.090933,2.2071 -2.090933,5.69199 0,3.48488 2.090933,5.69198 2.207095,2.09093 5.691982,2.09093 9.525359,0 16.030482,-6.62128 6.621286,-6.62129 6.737449,-16.14665 l 0.116163,-13.4749 q 0,-1.74244 0.232325,-2.55558 0.348489,-0.929303 1.858607,-2.439421 1.510118,-1.510117 5.227331,-2.090932 3.833376,-0.696978 5.691983,-2.555584 1.974769,-1.97477 1.974769,-5.343494 z"
         style="font-style:normal;font-variant:normal;font-weight:normal;font-stretch:normal;font-family:'Alba Super';-inkscape-font-specification:'Alba Super';fill:#000000;fill-opacity:1;stroke:none;stroke-opacity:1"
         id="path4138"
         inkscape:connector-curvature="0" />
      <path
         d="m 152.42204,168.43169 q 0,6.62129 -4.53035,10.91932 -4.41419,4.41419 -10.91932,4.41419 -14.05571,0 -23.58107,-9.29304 -9.52536,-9.29303 -9.52536,-23.34874 l 0,-5.45966 -0.11616,-29.15689 q 0,-1.74244 -1.74244,-1.74244 -1.85861,0 -1.85861,1.74244 l 0,26.36898 q 0,6.62129 -4.414191,10.91932 -4.41419,4.41419 -11.035476,4.41419 -6.621286,0 -11.035477,-4.41419 -4.298027,-4.29803 -4.298027,-10.91932 l 0,-37.98527 q 0,-13.707224 9.409195,-23.116419 9.525359,-9.409196 23.232586,-9.409196 13.70722,0 23.11642,9.409196 9.52535,9.409195 9.52535,23.116419 l 0,34.61655 q 0,1.8586 1.85861,1.8586 6.85361,0 11.38397,4.29803 4.53035,4.41419 4.53035,11.15164 0,3.1364 -1.04547,5.80815 1.04547,2.67174 1.04547,5.80814 z m -7.55059,-11.61629 q 0,-3.48489 -2.20709,-5.69198 -2.2071,-2.2071 -5.69199,-2.2071 l -0.46465,0 q -3.94954,0 -6.73745,-2.78791 -2.67174,-2.67174 -2.67174,-6.62128 l 0,-34.61655 q 0,-10.686988 -7.20211,-17.772926 -7.2021,-7.2021 -17.88908,-7.2021 -10.686991,0 -17.889092,7.2021 -7.2021,7.085938 -7.2021,17.772926 l 0,26.36898 q 0,3.48489 2.090932,5.69198 2.207095,2.09094 5.691983,2.09094 3.484887,0 5.691982,-2.09094 2.207096,-2.20709 2.207096,-5.69198 l 0,-26.36898 q 0,-3.94954 2.671747,-6.621286 2.78791,-2.671747 6.737452,-2.671747 3.83337,0 6.50512,2.78791 2.78791,2.671743 2.78791,6.505123 l 0.11616,34.61655 q 0,10.80315 7.08594,17.88909 7.2021,7.2021 18.00525,7.2021 l 0.46465,0 q 3.48489,0 5.69199,-2.2071 2.20709,-2.09093 2.20709,-5.57582 z"
         style="font-style:normal;font-variant:normal;font-weight:normal;font-stretch:normal;font-family:'Alba Super';-inkscape-font-specification:'Alba Super';fill:#000000;fill-opacity:1;stroke:none;stroke-opacity:1"
         id="path4140"
         inkscape:connector-curvature="0" />
      <path
         d="m 205.08377,142.87585 q 0,6.62129 -4.53036,10.91932 -4.41419,4.41419 -10.91931,4.41419 -6.50512,0 -10.80315,-4.18187 -4.41419,4.41419 -11.03548,4.41419 -15.79815,0 -26.48514,-10.80315 -10.68699,-10.68699 -10.68699,-26.48514 0,-2.90408 0.46465,-5.80815 -0.46465,-2.90407 -0.46465,-5.80814 0,-15.79816 10.68699,-26.485147 10.68699,-10.686988 26.48514,-10.686988 15.79816,0 26.48515,10.803151 10.80315,10.686987 10.80315,26.368984 l 0,33.33875 z m -7.55059,-11.61629 0,-21.72246 q 0,-12.661761 -8.59606,-21.141653 -8.47989,-8.479893 -21.14165,-8.479893 -12.66176,0 -21.14165,8.479893 -8.47989,8.479892 -8.47989,21.141653 0,12.66175 8.47989,21.25781 8.47989,8.47989 21.14165,8.47989 3.48489,0 5.69198,-2.20709 2.2071,-2.2071 2.2071,-5.69199 0,-3.48488 -2.2071,-5.57582 -2.20709,-2.20709 -5.69198,-2.20709 -5.80814,0 -9.87385,-4.0657 -4.0657,-4.18187 -4.0657,-9.99001 0,-5.80815 4.0657,-9.873851 4.06571,-4.065702 9.87385,-4.065702 5.80815,0 9.87385,4.065702 4.18186,4.065701 4.18186,9.873851 l 0,21.72246 q 0,3.48489 2.09094,5.69198 2.20709,2.09094 5.69198,2.09094 3.48489,0 5.69198,-2.09094 2.2071,-2.20709 2.2071,-5.69198 z M 172.55815,116.7392 q -1.97477,-1.97477 -4.76268,-1.97477 -1.51012,0 -2.78791,0.58081 1.16163,0.58082 3.60105,0.81314 2.90408,0.23233 3.94954,0.58082 z"
         style="font-style:normal;font-variant:normal;font-weight:normal;font-stretch:normal;font-family:'Alba Super';-inkscape-font-specification:'Alba Super';fill:#000000;fill-opacity:1;stroke:none;stroke-opacity:1"
         id="path4142"
         inkscape:connector-curvature="0" />
      <path
         d="m 275.87054,121.15339 q 0,15.68199 -10.80315,26.48514 -10.80315,10.80315 -26.48514,10.80315 -3.36873,0 -6.38896,-1.27779 l 0,9.4092 q 0,6.62128 -4.4142,11.03547 -4.41419,4.41419 -11.03547,4.41419 -6.62129,0 -11.03548,-4.41419 -4.29803,-4.41419 -4.29803,-11.03547 l 0,-57.03599 q 0,-15.79816 10.68699,-26.485147 10.68699,-10.686988 26.48515,-10.686988 15.79815,0 26.48514,10.686988 10.80315,10.686987 10.80315,26.485147 0,3.02023 -0.46465,5.9243 0.46465,2.78791 0.46465,5.69199 z m -34.38422,-5.80815 q -1.39396,-0.58081 -2.90407,-0.58081 -2.78791,0 -4.64652,1.97477 2.67175,-0.11617 7.55059,-1.39396 z m 26.83363,-5.80814 q 0,-12.661761 -8.59605,-21.141653 -8.4799,-8.479893 -21.14165,-8.479893 -12.66176,0 -21.14165,8.479893 -8.4799,8.479892 -8.4799,21.141653 l 0,45.41969 q 0,3.48489 2.09094,5.69199 2.20709,2.20709 5.69198,2.20709 3.48489,0 5.69198,-2.20709 2.2071,-2.2071 2.2071,-5.69199 l 0,-45.41969 q 0,-5.80815 4.0657,-9.873851 4.0657,-4.065702 9.87385,-4.065702 5.80814,0 9.87384,4.065702 4.18187,4.065701 4.18187,9.873851 0,5.80814 -4.18187,9.99001 -4.0657,4.0657 -9.87384,4.0657 -3.48489,0 -5.69199,2.20709 -2.09093,2.09094 -2.09093,5.57582 0,3.48489 2.09093,5.69199 2.2071,2.20709 5.69199,2.20709 12.66175,0 21.14165,-8.47989 8.59605,-8.59606 8.59605,-21.25781 z"
         style="font-style:normal;font-variant:normal;font-weight:normal;font-stretch:normal;font-family:'Alba Super';-inkscape-font-specification:'Alba Super';fill:#000000;fill-opacity:1;stroke:none;stroke-opacity:1"
         id="path4144"
         inkscape:connector-curvature="0" />
      <path
         d="m 345.97666,121.03722 q 0,15.56583 -10.91931,26.36899 -10.80315,10.80315 -26.36898,10.80315 -15.68199,0 -26.48514,-10.80315 -10.68699,-10.68699 -10.68699,-26.36899 0,-2.90407 0.46465,-5.80814 -0.46465,-2.90407 -0.46465,-5.80815 0,-15.798153 10.68699,-26.48514 10.68698,-10.803151 26.48514,-10.803151 3.48489,0 6.50512,1.277792 l 0,-9.525359 q 0,-6.505123 4.41419,-10.919313 4.41419,-4.414191 10.91932,-4.414191 6.62128,0 11.03547,4.414191 4.41419,4.298028 4.41419,10.919313 l 0,57.152148 z m -7.55058,-11.61629 0,-45.535858 q 0,-3.484887 -2.2071,-5.575819 -2.2071,-2.207096 -5.69198,-2.207096 -3.36873,0 -5.57582,2.207096 -2.2071,2.207095 -2.2071,5.575819 l 0,45.535858 q 0,5.80815 -4.18186,9.87385 -4.0657,4.0657 -9.87385,4.0657 -5.80815,0 -9.87385,-4.0657 -4.0657,-4.0657 -4.0657,-9.87385 0,-5.80814 4.0657,-9.873844 4.0657,-4.181865 9.87385,-4.181865 3.48489,0 5.69198,-2.090932 2.2071,-2.207096 2.2071,-5.691983 0,-3.484887 -2.2071,-5.691982 -2.20709,-2.207096 -5.69198,-2.207096 -12.66176,0 -21.14165,8.596056 -8.47989,8.479892 -8.47989,21.141646 0,12.5456 8.47989,21.14165 8.59606,8.4799 21.14165,8.4799 12.54559,0 21.14165,-8.4799 8.59606,-8.59605 8.59606,-21.14165 z m -25.09119,4.41419 q -2.67175,0.11617 -7.43443,1.39396 1.27779,0.58081 2.78791,0.58081 2.78791,0 4.64652,-1.97477 z"
         style="font-style:normal;font-variant:normal;font-weight:normal;font-stretch:normal;font-family:'Alba Super';-inkscape-font-specification:'Alba Super';fill:#000000;fill-opacity:1;stroke:none;stroke-opacity:1"
         id="path4146"
         inkscape:connector-curvature="0" />
    </g>
  </g>
</svg>
